<?xml version="1.0" encoding="UTF-8" standalone="no"?>
<!-- Created with Inkscape (http://www.inkscape.org/) -->

<svg
   xmlns:dc="http://purl.org/dc/elements/1.1/"
   xmlns:cc="http://creativecommons.org/ns#"
   xmlns:rdf="http://www.w3.org/1999/02/22-rdf-syntax-ns#"
   xmlns:svg="http://www.w3.org/2000/svg"
   xmlns="http://www.w3.org/2000/svg"
   xmlns:sodipodi="http://sodipodi.sourceforge.net/DTD/sodipodi-0.dtd"
   xmlns:inkscape="http://www.inkscape.org/namespaces/inkscape"
   width="414.84384"
   height="64.524391"
   viewBox="0 0 414.84386 64.524393"
   id="svg4550"
   version="1.1"
   inkscape:version="0.91 r13725"
   sodipodi:docname="logo-full-plain.svg"
   inkscape:export-filename="D:\src\vx\logo-compact.png"
   inkscape:export-xdpi="82.32"
   inkscape:export-ydpi="82.32">
  <defs
     id="defs4552" />
  <sodipodi:namedview
     id="base"
     pagecolor="#ffffff"
     bordercolor="#666666"
     borderopacity="1.0"
     inkscape:pageopacity="0.0"
     inkscape:pageshadow="2"
     inkscape:zoom="2.8"
     inkscape:cx="222.66628"
     inkscape:cy="-15.736863"
     inkscape:document-units="px"
     inkscape:current-layer="layer1"
     showgrid="false"
     fit-margin-top="0"
     fit-margin-left="0"
     fit-margin-right="0"
     fit-margin-bottom="0"
     inkscape:window-width="1920"
     inkscape:window-height="1018"
     inkscape:window-x="-8"
     inkscape:window-y="-8"
     inkscape:window-maximized="1" />
  <metadata
     id="metadata4555">
    <rdf:RDF>
      <cc:Work
         rdf:about="">
        <dc:format>image/svg+xml</dc:format>
        <dc:type
           rdf:resource="http://purl.org/dc/dcmitype/StillImage" />
        <dc:title />
      </cc:Work>
    </rdf:RDF>
  </metadata>
  <g
     inkscape:label="Layer 1"
     inkscape:groupmode="layer"
     id="layer1"
     transform="translate(-113.21864,-415.40625)">
    <path
       style="color:#000000;font-style:normal;font-variant:normal;font-weight:normal;font-stretch:normal;font-size:medium;line-height:normal;font-family:sans-serif;text-indent:0;text-align:start;text-decoration:none;text-decoration-line:none;text-decoration-style:solid;text-decoration-color:#000000;letter-spacing:normal;word-spacing:normal;text-transform:none;direction:ltr;block-progression:tb;writing-mode:lr-tb;baseline-shift:baseline;text-anchor:start;white-space:normal;clip-rule:nonzero;display:inline;overflow:visible;visibility:visible;opacity:1;isolation:auto;mix-blend-mode:normal;color-interpolation:sRGB;color-interpolation-filters:linearRGB;solid-color:#000000;solid-opacity:1;fill:#000000;fill-opacity:1;fill-rule:nonzero;stroke:none;stroke-width:3.20446372px;stroke-linecap:butt;stroke-linejoin:miter;stroke-miterlimit:4;stroke-dasharray:none;stroke-dashoffset:0;stroke-opacity:1;color-rendering:auto;image-rendering:auto;shape-rendering:auto;text-rendering:auto;enable-background:accumulate"
       d="m 114.16797,442.25781 -0.56641,3.1543 24.28516,4.35937 0.5664,-3.15429 -24.28515,-4.35938 z"
       id="path4186"
       inkscape:connector-curvature="0" />
    <path
       style="color:#000000;font-style:normal;font-variant:normal;font-weight:normal;font-stretch:normal;font-size:medium;line-height:normal;font-family:sans-serif;text-indent:0;text-align:start;text-decoration:none;text-decoration-line:none;text-decoration-style:solid;text-decoration-color:#000000;letter-spacing:normal;word-spacing:normal;text-transform:none;direction:ltr;block-progression:tb;writing-mode:lr-tb;baseline-shift:baseline;text-anchor:start;white-space:normal;clip-rule:nonzero;display:inline;overflow:visible;visibility:visible;opacity:1;isolation:auto;mix-blend-mode:normal;color-interpolation:sRGB;color-interpolation-filters:linearRGB;solid-color:#000000;solid-opacity:1;fill:#000000;fill-opacity:1;fill-rule:nonzero;stroke:none;stroke-width:3.20446372px;stroke-linecap:butt;stroke-linejoin:miter;stroke-miterlimit:4;stroke-dasharray:none;stroke-dashoffset:0;stroke-opacity:1;color-rendering:auto;image-rendering:auto;shape-rendering:auto;text-rendering:auto;enable-background:accumulate"
       d="m 137.89648,456.73438 -24.31054,4.21093 0.54687,3.15821 24.31055,-4.21094 -0.54688,-3.1582 z"
       id="path4188"
       inkscape:connector-curvature="0" />
    <g
       transform="scale(0.88684064,1.1275983)"
       style="font-style:normal;font-variant:normal;font-weight:normal;font-stretch:normal;font-size:45.72758484px;line-height:100%;font-family:'Oxygen Mono';-inkscape-font-specification:'Oxygen Mono';text-align:start;letter-spacing:-2.92656565px;word-spacing:0px;text-anchor:start;display:inline;fill:#000000;fill-opacity:1;stroke:none"
       id="text4215">
      <path
         d="m 240.01204,385.71902 c -3.06375,0 -5.48731,2.42356 -5.48731,5.48731 l 0,27.43655 3.70393,0 0,-12.02635 25.51599,0 0,12.02635 3.70394,0 0,-27.43655 c 0,-3.06375 -2.42356,-5.48731 -5.48731,-5.48731 l -21.94924,0 z m -1.78338,17.19357 0,-11.70626 c 0,-0.96028 0.8231,-1.78337 1.78338,-1.78337 l 21.94924,0 c 0.96028,0 1.78337,0.82309 1.78337,1.78337 l 0,11.70626 -25.51599,0 z"
         style="font-style:normal;font-variant:normal;font-weight:300;font-stretch:normal;font-family:Orbitron;-inkscape-font-specification:'Orbitron Light'"
         id="path4157" />
      <path
         d="m 290.94971,392.12088 -15.9132,0 c -3.06375,0 -5.53304,2.46929 -5.53304,5.53304 l 0,15.45593 c 0,3.06374 2.46929,5.53303 5.53304,5.53303 l 21.49196,0 0,-3.74966 -21.49196,0 c -0.96028,0 -1.78338,-0.8231 -1.78338,-1.78337 l 0,-5.85314 23.27534,0 0,-9.60279 c 0,-3.06375 -2.46929,-5.53304 -5.57876,-5.53304 z m -17.69658,11.38617 0,-5.85313 c 0,-0.96028 0.8231,-1.78337 1.78338,-1.78337 l 15.9132,0 c 1.006,0 1.78337,0.82309 1.78337,1.78337 l 0,5.85313 -19.47995,0 z"
         style="font-style:normal;font-variant:normal;font-weight:300;font-stretch:normal;font-family:Orbitron;-inkscape-font-specification:'Orbitron Light'"
         id="path4159" />
      <path
         d="m 303.50407,392.12088 c -3.06375,0 -5.53303,2.46929 -5.53303,5.53304 l 0,20.98896 3.74966,0 0,-20.98896 c 0,-0.96028 0.82309,-1.78337 1.78337,-1.78337 l 14.9072,0 0,-3.74967 -14.9072,0 z"
         style="font-style:normal;font-variant:normal;font-weight:300;font-stretch:normal;font-family:Orbitron;-inkscape-font-specification:'Orbitron Light'"
         id="path4161" />
      <path
         d="m 323.66351,392.12088 c -3.06375,0 -5.53304,2.46929 -5.53304,5.53304 l 0,15.45593 c 0,3.06374 2.46929,5.53303 5.53304,5.53303 l 15.9132,0 c 3.10947,0 5.57876,-2.46929 5.57876,-5.53303 l 0,-15.45593 c 0,-3.06375 -2.46929,-5.53304 -5.57876,-5.53304 l -15.9132,0 z m 15.9132,3.74967 c 1.006,0 1.78337,0.82309 1.78337,1.78337 l 0,15.45593 c 0,0.96027 -0.77737,1.78337 -1.78337,1.78337 l -15.9132,0 c -0.96028,0 -1.78338,-0.8231 -1.78338,-1.78337 l 0,-15.45593 c 0,-0.96028 0.8231,-1.78337 1.78338,-1.78337 l 15.9132,0 z"
         style="font-style:normal;font-variant:normal;font-weight:300;font-stretch:normal;font-family:Orbitron;-inkscape-font-specification:'Orbitron Light'"
         id="path4164" />
      <path
         d="m 367.7349,392.12088 -21.49197,0 0,26.522 3.74967,0 0,-20.98896 c 0,-0.96028 0.82309,-1.78337 1.8291,-1.78337 l 15.9132,0 c 0.96028,0 1.78337,0.82309 1.78337,1.78337 l 0,20.98896 3.74967,0 0,-20.98896 c 0,-3.06375 -2.46929,-5.53304 -5.53304,-5.53304 z"
         style="font-style:normal;font-variant:normal;font-weight:300;font-stretch:normal;font-family:Orbitron;-inkscape-font-specification:'Orbitron Light'"
         id="path4166" />
      <path
         d="m 396.46612,392.12088 -21.44624,0 0,3.74967 21.44624,0 c 1.006,0 1.78337,0.82309 1.78337,1.78337 l 0,5.85313 -23.22961,0 0,9.6028 c 0,3.06374 2.46929,5.53303 5.53304,5.53303 l 21.49196,0 0,-20.98896 c 0,-3.06375 -2.46929,-5.53304 -5.57876,-5.53304 z m 1.78337,22.77234 -17.69657,0 c -0.96028,0 -1.78338,-0.8231 -1.78338,-1.78337 l 0,-5.85314 19.47995,0 0,7.63651 z"
         style="font-style:normal;font-variant:normal;font-weight:300;font-stretch:normal;font-family:Orbitron;-inkscape-font-specification:'Orbitron Light'"
         id="path4168" />
      <path
         d="m 427.12003,392.12088 0,20.98897 c 0,0.96027 -0.8231,1.78337 -1.8291,1.78337 l -15.9132,0 c -0.96028,0 -1.78338,-0.8231 -1.78338,-1.78337 l 0,-20.98897 -3.74966,0 0,20.98897 c 0,3.06374 2.46929,5.53303 5.53304,5.53303 l 15.9132,0 c 3.10947,0 5.57876,-2.46929 5.57876,-5.53303 l 0,-20.98897 -3.74966,0 z"
         style="font-style:normal;font-variant:normal;font-weight:300;font-stretch:normal;font-family:Orbitron;-inkscape-font-specification:'Orbitron Light'"
         id="path4170" />
      <path
         d="m 447.22588,395.87055 0,-3.74967 -11.47763,0 0,-8.68824 -3.74966,0 0,29.67721 c 0,3.06374 2.42356,5.53303 5.53304,5.53303 l 9.69425,0 0,-3.74966 -9.69425,0 c -0.96028,0 -1.78338,-0.8231 -1.78338,-1.78337 l 0,-17.2393 11.47763,0 z"
         style="font-style:normal;font-variant:normal;font-weight:300;font-stretch:normal;font-family:Orbitron;-inkscape-font-specification:'Orbitron Light'"
         id="path4172" />
      <path
         d="m 448.04968,418.64288 3.74966,0 0,-26.522 -3.74966,0 0,26.522 z m 0,-35.21024 0,3.74966 3.74966,0 0,-3.74966 -3.74966,0 z"
         style="font-style:normal;font-variant:normal;font-weight:300;font-stretch:normal;font-family:Orbitron;-inkscape-font-specification:'Orbitron Light'"
         id="path4174" />
      <path
         d="m 459.45229,414.89322 c -0.96028,0 -1.78338,-0.8231 -1.78338,-1.78337 l 0,-15.45593 c 0,-0.96028 0.8231,-1.78337 1.78338,-1.78337 l 21.40051,0 0,-3.74967 -21.40051,0 c -3.06375,0 -5.53304,2.46929 -5.53304,5.53304 l 0,15.45593 c 0,3.06374 2.46929,5.53303 5.53304,5.53303 l 21.49196,0 0,-3.74966 -21.49196,0 z"
         style="font-style:normal;font-variant:normal;font-weight:300;font-stretch:normal;font-family:Orbitron;-inkscape-font-specification:'Orbitron Light'"
         id="path4176" />
      <path
         d="m 504.27961,392.12088 -21.44624,0 0,3.74967 21.44624,0 c 1.006,0 1.78337,0.82309 1.78337,1.78337 l 0,5.85313 -23.22961,0 0,9.6028 c 0,3.06374 2.46929,5.53303 5.53304,5.53303 l 21.49196,0 0,-20.98896 c 0,-3.06375 -2.46929,-5.53304 -5.57876,-5.53304 z m 1.78337,22.77234 -17.69657,0 c -0.96028,0 -1.78338,-0.8231 -1.78338,-1.78337 l 0,-5.85314 19.47995,0 0,7.63651 z"
         style="font-style:normal;font-variant:normal;font-weight:300;font-stretch:normal;font-family:Orbitron;-inkscape-font-specification:'Orbitron Light'"
         id="path4178" />
      <path
         d="m 511.16589,383.43264 0,29.67721 c 0,3.06374 2.46929,5.53303 5.53304,5.53303 l 4.4813,0 0,-3.74966 -4.4813,0 c -0.96028,0 -1.78338,-0.8231 -1.78338,-1.78337 l 0,-29.67721 -3.74966,0 z"
         style="font-style:normal;font-variant:normal;font-weight:300;font-stretch:normal;font-family:Orbitron;-inkscape-font-specification:'Orbitron Light'"
         id="path4180" />
    </g>
    <path
       style="color:#000000;font-style:normal;font-variant:normal;font-weight:normal;font-stretch:normal;font-size:medium;line-height:normal;font-family:sans-serif;text-indent:0;text-align:start;text-decoration:none;text-decoration-line:none;text-decoration-style:solid;text-decoration-color:#000000;letter-spacing:normal;word-spacing:normal;text-transform:none;direction:ltr;block-progression:tb;writing-mode:lr-tb;baseline-shift:baseline;text-anchor:start;white-space:normal;clip-rule:nonzero;display:inline;overflow:visible;visibility:visible;opacity:1;isolation:auto;mix-blend-mode:normal;color-interpolation:sRGB;color-interpolation-filters:linearRGB;solid-color:#000000;solid-opacity:1;fill:#000000;fill-opacity:1;fill-rule:nonzero;stroke:none;stroke-width:3.20446372px;stroke-linecap:butt;stroke-linejoin:miter;stroke-miterlimit:4;stroke-dasharray:none;stroke-dashoffset:0;stroke-opacity:1;color-rendering:auto;image-rendering:auto;shape-rendering:auto;text-rendering:auto;enable-background:accumulate"
       d="m 113.22266,451.57422 -0.01,3.20312 24.67188,0.0762 0.01,-3.20508 -24.67187,-0.0742 z"
       id="path4330"
       inkscape:connector-curvature="0" />
    <g
       style="font-style:normal;font-variant:normal;font-weight:normal;font-stretch:normal;font-size:40.05579758px;line-height:100%;font-family:'Oxygen Mono';-inkscape-font-specification:'Oxygen Mono';text-align:start;letter-spacing:-2.56357074px;word-spacing:0px;text-anchor:start;fill:#000000;fill-opacity:1;stroke:none"
       id="text4136">
      <path
         d="m 171.55894,427.94416 q -0.54764,0.78234 -1.17351,1.48645 -0.58676,0.66499 -1.48645,1.05616 -0.4694,2.69907 -0.78234,5.43726 -0.27382,2.73819 -0.62587,5.47638 -0.31294,2.73819 -0.74322,5.47638 -0.39117,2.69907 -1.09528,5.35902 l 0.0391,0.46941 q 0.0782,0.78234 -0.19559,1.48644 -0.27382,0.70411 -0.2347,1.52557 -0.54764,1.36909 -0.93881,3.05112 -0.39117,1.64291 -0.4694,3.12936 -0.39117,0.66499 -0.66499,1.44733 -0.2347,0.78234 -0.50852,1.6038 -0.2347,0.78234 -0.54764,1.52556 -0.31293,0.7041 -0.82146,1.29086 -0.11735,0.89969 -0.4694,1.68203 -0.31294,0.82146 -0.74322,1.6038 -0.39117,0.78234 -0.78234,1.52556 -0.35205,0.78234 -0.50852,1.64291 -0.66499,1.01704 -1.32998,1.95585 -0.66499,0.97793 -1.21263,2.03408 -0.50852,0.23471 -0.89969,0.50853 -0.35205,0.31293 -0.7041,0.54763 -0.35206,0.27382 -0.82146,0.46941 -0.43029,0.19558 -1.05616,0.19558 -0.15647,0 -0.31294,-0.0391 -0.11735,0 -0.27381,0 -0.54764,-0.43029 -1.09528,-0.86058 -0.54764,-0.39117 -1.17351,-0.7041 0,-0.23471 -0.0782,-0.39117 -0.0391,-0.15647 -0.0782,-0.31294 -0.0391,-0.15647 -0.0391,-0.31294 0,-0.15646 0.0782,-0.39117 -0.35205,-0.2347 -0.82146,-0.86057 -0.43028,-0.58675 -0.43028,-1.01704 0,-0.39117 0.27381,-0.39117 -0.0782,-0.39117 -0.27381,-0.78234 -0.15647,-0.35205 -0.15647,-0.74322 0,-0.27382 0.15647,-0.58676 -0.43029,-1.01704 -0.78234,-2.11232 -0.35206,-1.05615 -0.46941,-2.19055 -0.39117,-0.50852 -0.62587,-1.17351 -0.19558,-0.7041 -0.31294,-1.44733 -0.11735,-0.74322 -0.19558,-1.44732 -0.0782,-0.74323 -0.19559,-1.3691 -0.0391,-0.2347 -0.19558,-0.74322 -0.15647,-0.54764 -0.15647,-0.74322 0,-0.23471 0.0782,-0.35206 0.11735,-0.11735 0.19558,-0.31293 -0.4694,-1.87762 -0.78234,-3.79435 -0.27382,-1.91673 -0.54764,-3.83347 -0.2347,-1.91673 -0.58675,-3.79434 -0.31294,-1.91674 -0.89969,-3.75524 l 0,-0.35205 q 0,-1.25174 -0.97793,-1.99496 0.19559,-0.58676 0.19559,-0.97793 0,-0.50852 -0.15647,-0.97792 -0.11735,-0.46941 -0.27382,-0.93881 -0.15647,-0.46941 -0.2347,-0.93881 -0.0391,-0.4694 0.0782,-0.93881 -0.43028,-0.4694 -0.7041,-1.01704 -0.27382,-0.54764 -0.70411,-0.93881 l -0.0391,-0.2347 q 0,-0.19558 0.11735,-0.35205 0.0782,-0.15647 0.0782,-0.35205 0,-0.27382 -0.11735,-0.46941 -0.15647,-0.19558 -0.31294,-0.35205 -0.19558,-0.15647 -0.31293,-0.31294 -0.15647,-0.15647 -0.15647,-0.35205 0,-0.4694 0.31293,-0.74322 0.31294,-0.27382 0.70411,-0.46941 0.39117,-0.2347 0.74322,-0.4694 0.39117,-0.2347 0.50852,-0.66499 0.31294,0.0782 0.62588,0.11735 0.31293,0 0.62587,0.15647 0.0391,-0.0391 0.0391,-0.11735 0,-0.11735 -0.39117,-0.19559 -0.35205,-0.11735 -0.4694,-0.27382 0.31294,-0.0782 0.4694,-0.0782 0.78234,0 1.48645,0.39117 0.74322,0.39117 1.40821,0.82146 0.0782,0.35205 0.0391,0.74322 -0.0391,0.35205 0.2347,0.66499 -0.0391,0.19558 -0.0391,0.35205 0.0391,0.15647 0.0391,0.31294 0,0.19558 -0.0782,0.35205 -0.0391,0.11735 -0.19559,0.11735 0.27382,0.46941 0.35205,1.13439 0.11736,0.66499 0.19559,1.3691 0.11735,0.7041 0.27382,1.36909 0.15647,0.66499 0.58675,1.17351 -0.0782,0.2347 -0.11735,0.46941 0,0.2347 0,0.50852 0,1.25174 0.31294,2.46437 0.31293,1.21262 0.31293,2.46437 0,0.74322 -0.2347,1.36909 0,0.35206 0.2347,0.58676 0.23471,0.19558 0.31294,0.54764 -0.19559,0.4694 -0.19559,0.89969 0,0.89969 0.35206,1.72114 0.35205,0.78234 0.35205,1.64292 0,0.27382 -0.0782,0.50852 -0.0782,0.2347 -0.15647,0.43029 0.35205,0.35205 0.35205,0.89969 0.0391,0.54763 0.35205,0.89969 -0.0391,0.19558 -0.0782,0.39117 0,0.19558 -0.19558,0.31293 0.19558,0.27382 0.19558,0.74323 0.0391,0.43028 0.35205,0.50852 -0.0782,0.19558 -0.11735,0.35205 -0.0391,0.15647 -0.0391,0.35205 0,0.43029 0.11735,0.78234 0.11735,0.35205 0.2347,0.70411 0.11735,0.35205 0.15647,0.74322 0.0782,0.39117 -0.0782,0.86057 0.15647,0.23471 0.2347,0.54764 0.11736,0.31294 0.19559,0.66499 0.0782,0.31294 0.2347,0.58676 0.15647,0.2347 0.46941,0.31293 0.0391,0.2347 -0.19559,0.2347 -0.19558,0 -0.19558,0.19559 0,0.31293 0.2347,0.78234 0.2347,0.43029 0.43028,0.62587 -0.0391,0.15647 -0.0391,0.31294 0,0.15646 0,0.35205 0,0.54764 0.15647,1.13439 0.15646,0.54764 0.27381,1.09528 0.15647,0.58675 0.23471,1.13439 0.0782,0.54764 -0.0782,1.01704 0.31294,0.54764 0.54764,1.17351 0.2347,0.62587 0.74322,1.05616 0,0.66499 0.27382,1.25174 0.27382,0.62588 0.70411,1.17351 0.39117,0 0.58675,-0.27382 0.19559,-0.2347 0.31294,-0.54763 0.11735,-0.31294 0.27382,-0.58676 0.15647,-0.27382 0.50852,-0.31293 0.0391,-0.39117 0.19558,-0.66499 0.19559,-0.2347 0.35206,-0.50852 0.19558,-0.27382 0.31293,-0.58676 0.15647,-0.31293 0.11735,-0.78234 l 0.43029,-0.11735 q 0.19558,-1.05616 0.58675,-1.91673 0.43029,-0.82146 0.93881,-1.72115 l 0,-0.19558 q 0,-0.39117 0.11735,-0.66499 0.11735,-0.27382 0.0391,-0.70411 0.27382,-0.0782 0.39117,-0.31293 0.11735,-0.23471 0.19559,-0.46941 0.0782,-0.27382 0.15646,-0.50852 0.11735,-0.27382 0.35206,-0.39117 l 0,-0.31294 q -0.0391,-0.35205 0.0391,-0.66498 0.11735,-0.35206 -0.0391,-0.70411 0.31293,-0.11735 0.4694,-0.39117 0.15647,-0.27382 0.2347,-0.58675 0.11735,-0.31294 0.11735,-0.66499 0.0391,-0.35206 0.0391,-0.62588 0.27382,-0.35205 0.39117,-0.82145 0.11735,-0.50852 0.19558,-1.01704 0.0782,-0.50852 0.19559,-0.97793 0.15647,-0.4694 0.4694,-0.82146 -0.0782,-0.19558 -0.0782,-0.35205 0,-0.15647 0,-0.35205 0,-0.74322 0.2347,-1.32998 0.2347,-0.62587 0.43029,-1.32998 0.50852,-1.76026 0.7041,-3.59876 0.23471,-1.87761 0.66499,-3.677 0.0391,-0.19558 0.15647,-0.62587 0.11735,-0.43029 0.2347,-0.86057 0.11735,-0.46941 0.19559,-0.82146 0.11735,-0.39117 0.11735,-0.50852 0,-0.31294 -0.15647,-0.43029 -0.11735,-0.11735 -0.11735,-0.39117 0.2347,-0.35205 0.31294,-0.89969 0.0782,-0.54764 0.11735,-1.13439 0.0391,-0.62587 0,-1.17351 0,-0.58675 0,-1.01704 0,-0.43029 0.19558,-1.09528 0.19559,-0.66499 0.27382,-1.17351 0.19559,-1.32997 0.2347,-2.62084 0.0782,-1.32997 0.15647,-2.65995 0.27382,-0.15647 0.39117,-0.39117 0.11735,-0.27382 0.11735,-0.54764 0,-0.43029 -0.11735,-0.82145 -0.0782,-0.39117 -0.0782,-0.82146 0,-0.19559 0.0391,-0.39117 0.0391,-0.2347 0.19559,-0.39117 -0.0391,-0.27382 -0.0782,-0.54764 0,-0.27382 -0.19558,-0.4694 0.19558,-0.50852 0.19558,-1.01705 0,-0.4694 -0.11735,-0.9388 -0.0782,-0.46941 -0.0782,-0.97793 0,-0.97792 0.82146,-1.40821 l 0.54763,0 q 0.39117,0 0.78234,-0.0391 0.39117,-0.0391 0.82146,-0.2347 0.50852,0.54764 1.05616,1.21263 0.54764,0.62587 0.93881,1.36909 0.39117,0.74323 0.58675,1.52557 0.19559,0.78234 0.0391,1.64291 0.15647,0.31294 0.19558,0.62587 0.0391,0.31294 0.23471,0.62587 z m -7.97987,21.31876 q -0.15647,-0.0391 -0.2347,-0.11735 -0.0391,-0.11735 -0.2347,-0.15647 l 0,0.43029 0.31293,0 0.15647,-0.15647 z"
         style="font-style:normal;font-variant:normal;font-weight:normal;font-stretch:normal;font-family:'rock salt';-inkscape-font-specification:'rock salt'"
         id="path4152" />
      <path
         d="m 195.16463,437.44959 q -0.0782,0.82146 -0.58675,1.25175 -0.46941,0.39117 -1.09528,0.82145 -0.82146,1.21263 -1.76026,2.34702 -0.89969,1.13439 -1.87762,2.26879 -0.93881,1.09527 -1.87761,2.26878 -0.8997,1.13439 -1.64292,2.38614 -0.89969,0.66499 -1.60379,1.48644 -0.70411,0.78234 -1.3691,1.64292 -0.66499,0.82145 -1.32998,1.72115 -0.62587,0.86057 -1.32997,1.64291 0.2347,0.93881 0.82145,1.48644 0.58676,0.54764 1.29086,1.01705 0.70411,0.43028 1.3691,0.9388 0.66499,0.50852 1.01704,1.32998 1.17351,0.19559 2.26878,0.62587 1.1344,0.39117 2.34702,0.39117 0.89969,0 1.72115,-0.4694 0.35205,0.0782 0.70411,0.27382 0.39117,0.19558 0.82145,0.19558 0.35206,0 0.70411,-0.35205 0.0782,0.11735 0.15647,0.31294 0.0782,0.15646 0.27382,0.15646 0.0782,0 0.11735,0 0.0782,-0.0391 0.11735,-0.0391 l 0,0.62587 q 0,0.35205 0.0391,0.70411 0.0391,0.31293 0.15646,0.66498 -0.31293,0 -0.50852,0.11735 -0.15647,0.11736 -0.35205,0.23471 -0.15647,0.11735 -0.39117,0.19558 -0.2347,0.0782 -0.62587,0 -0.2347,0.0391 -0.31294,0.2347 -0.0391,0.19559 -0.2347,0.31294 -0.27382,0.19558 -0.74322,0.19558 -0.43029,0 -0.78234,0.19559 -0.66499,0.0391 -1.32998,0.0782 -0.66499,0.0391 -1.32998,0.0391 -0.39117,0 -0.93881,0 -0.54763,-0.0391 -1.09527,-0.0782 -0.54764,-0.0782 -1.05616,-0.15647 -0.50852,-0.11735 -0.86057,-0.27382 -1.29086,-0.62587 -2.50349,-1.56468 -1.21263,-0.93881 -2.34702,-1.8385 -0.31294,-0.27382 -0.62587,-0.54764 -0.31294,-0.27382 -0.66499,-0.50852 -0.0391,-0.0391 -0.19559,-0.0391 -0.19558,0 -0.35205,0.0782 -0.11735,0.0782 -0.27382,0.0782 -0.15647,0 -0.15647,-0.11735 -1.21262,1.17351 -2.26878,2.50349 -1.05616,1.32998 -2.11232,2.65996 0,0.31293 0.15647,0.50852 0.15647,0.15646 0.31294,0.35205 0.15646,0.15647 0.27381,0.35205 0.15647,0.19559 0.15647,0.50852 0,0.2347 -0.0391,0.39117 -0.35206,0.11735 -0.82146,0.15647 -0.46941,0.0391 -0.97793,0.11735 -0.4694,0.11735 -0.86057,0.27382 -0.39117,0.19559 -0.54764,0.58676 -0.27382,-0.0782 -0.50852,-0.15647 -0.19558,-0.0782 -0.50852,-0.0391 -0.31294,-0.39117 -0.62587,-0.78234 -0.35205,-0.43029 -0.62587,-0.89969 -0.0391,-0.27382 -0.0391,-0.50852 -0.0391,-0.27382 -0.0391,-0.54764 0,-0.89969 0.27382,-1.6038 0.27382,-0.74322 0.62587,-1.52556 0.66499,-0.31293 1.21263,-0.66499 0.58675,-0.39117 0.78234,-1.13439 0.50852,-0.0391 0.82146,-0.31294 0.35205,-0.31293 0.62587,-0.66498 0.31293,-0.35206 0.62587,-0.62588 0.31294,-0.27381 0.86057,-0.35205 0,-0.0782 -0.0391,-0.15647 0,-0.0782 0,-0.15646 0,-0.27382 0.11735,-0.39117 0.11735,-0.15647 0.27382,-0.23471 0.19558,-0.11735 0.35205,-0.19558 0.19558,-0.0782 0.31294,-0.27382 -0.15647,-0.43029 -0.35206,-0.82146 -0.15646,-0.39117 -0.39117,-0.74322 -0.39117,-0.58675 -0.82145,-1.13439 -0.43029,-0.54764 -0.86058,-1.09528 -0.19558,-0.27382 -0.50852,-0.4694 -0.27382,-0.2347 -0.4694,-0.54764 -0.19559,-0.31294 -0.2347,-0.70411 -0.0391,-0.39117 -0.19559,-0.7041 -0.19558,-0.39117 -0.50852,-0.70411 -0.27382,-0.35205 -0.27382,-0.86057 0,-0.27382 0.11735,-0.50852 -0.43028,-0.43029 -0.62587,-1.01704 -0.19558,-0.62588 -0.19558,-1.21263 0,-0.54764 0.15646,-1.09528 0.15647,-0.58675 0.50852,-1.05616 l 0.35206,0 q 0.19558,0 0.19558,-0.11735 0.2347,0.15647 0.50852,0.27382 0.31294,0.11735 0.35206,0.43029 0.35205,0.0391 0.7041,0.11735 0.35205,0.0782 0.70411,0.15647 0.62587,0.93881 1.13439,1.91673 0.50852,0.97793 1.01704,1.95585 0.54764,0.97793 1.13439,1.91673 0.58676,0.93881 1.32998,1.76027 0.58676,-0.2347 1.01704,-0.70411 0.43029,-0.4694 0.78234,-0.97792 0.39117,-0.50852 0.82146,-0.97793 0.43029,-0.4694 1.01704,-0.7041 -0.0391,-0.0391 -0.0391,-0.11735 0,-0.19559 0.11735,-0.27382 0.15646,-0.11735 0.0782,-0.43029 0.78234,-0.54764 1.44733,-1.17351 0.66499,-0.62587 0.93881,-1.64291 l 0.54763,0 q 0.93881,-1.25175 1.87762,-2.50349 0.97792,-1.25174 2.19055,-2.26879 l 0,-0.54763 q 0.62587,-0.39117 1.09528,-0.89969 0.4694,-0.54764 0.89969,-1.09528 0.43028,-0.58676 0.82145,-1.17351 0.43029,-0.58676 0.97793,-1.05616 0.39117,0.19559 0.82146,0.27382 0.43028,0.0782 0.82145,0.19558 0.43029,0.11736 0.78234,0.31294 0.39117,0.15647 0.66499,0.50852 z"
         style="font-style:normal;font-variant:normal;font-weight:normal;font-stretch:normal;font-family:'rock salt';-inkscape-font-specification:'rock salt'"
         id="path4154" />
    </g>
    <path
       transform="matrix(0.6408329,0,0,0.6408329,73.832243,228.96737)"
       style="display:inline;fill:#000000;fill-opacity:1;stroke:none"
       d="m 613.29057,351.38312 a 3.6191227,3.6191227 0 0 1 -3.61912,3.61912 3.6191227,3.6191227 0 0 1 -3.61912,-3.61912 3.6191227,3.6191227 0 0 1 3.61912,-3.61913 3.6191227,3.6191227 0 0 1 3.61912,3.61913 z"
       id="circle4336-4" />
    <path
       style="display:inline;fill:#000000;fill-opacity:1;stroke:none"
       d="M 412.28711 0.001953125 C 412.25622 0.042321403 412.22993 0.078981413 412.19922 0.11914062 C 405.62183 8.6873858 403.08672 8.731924 396.43945 10.009766 L 397.04297 13.15625 C 399.50654 12.682664 401.64217 12.263411 403.70898 11.457031 C 388.89243 29.288958 373.99355 37.241845 351.28516 37.146484 L 347.23242 37.134766 L 347.23242 40.339844 L 351.27539 40.351562 C 374.8932 40.449727 391.05136 31.684202 406.42188 13.175781 C 406.2505 15.147335 406.25179 17.439136 406.45898 20.203125 L 409.6543 19.964844 C 409.1441 13.158798 409.67767 9.9355469 411.1543 7.1621094 C 411.3175 6.9427854 411.48134 6.7411099 411.64453 6.5195312 L 411.55859 6.4570312 C 412.37371 5.1037734 413.42554 3.7805226 414.69141 2.1308594 C 414.74031 2.0674024 414.78677 2.0134966 414.83594 1.9492188 L 412.28906 0.00390625 L 412.28711 0.001953125 z "
       transform="translate(113.21864,415.40625)"
       id="path4163" />
  </g>
  <g
     inkscape:groupmode="layer"
     id="layer6"
     inkscape:label="Layer 2"
     transform="translate(-0.35116,-175.18393)"
     style="display:inline" />
</svg>
